# xmcd
#
# Track frame offsets:
#	150
#	19904
#	33449
#	46906
#	73827
#	94159
#	122649
#	151480
#	175336
#	225320
#	249476
#
# Disc length: 3640 seconds
#
# Revision: 0
# Processed by: cddbd v1.5.1PL2 Copyright (c) Steve Scherf et al.
# Submitted via: EasyCDDAExtractor 9.0.0.1
#
DISCID=8a0e360b
DTITLE=Eric Clapton - Crossroads 2  (Live in the Seventies) CD 4
DYEAR=1996
DGENRE=Blues
TTITLE0=Loving You Is Sweeter That Ever
TTITLE1=Cryin'
TTITLE2=Water On The Ground
TTITLE3=Worried Life Blues
TTITLE4=Tulsa Time
TTITLE5=Early In The Morning
TTITLE6=Wonderful Tonight
TTITLE7=Kind Hearted Woman
TTITLE8=Double Trouble
TTITLE9=Crossroads
TTITLE10=To Make Somebody Happy
EXTD=
EXTT0=
EXTT1=
EXTT2=
EXTT3=
EXTT4=
EXTT5=
EXTT6=
EXTT7=
EXTT8=
EXTT9=
EXTT10=
PLAYORDER=
